<svg width="1585" height="117" viewBox="0 0 1585 117" fill="none" xmlns="http://www.w3.org/2000/svg">
<path d="M0.121582 19.432C1.65258 7.18398 9.69033 0.80481 23.4693 0.80481C40.9483 0.80481 55.6203 4.12197 67.7408 4.12197C73.6096 4.12197 78.4578 3.73923 82.7956 2.08064C79.8612 7.94948 74.8854 12.4149 67.9959 14.9666V71.7411C70.2924 69.8274 73.482 66.893 77.3095 62.5551C72.9717 82.0754 57.9168 94.451 39.0345 94.451C16.3247 94.451 0.631916 80.672 0.631916 60.6414C0.631916 43.5452 9.30758 28.618 24.49 19.5596C16.835 29.6386 13.1351 39.5901 13.1351 51.9657C13.1351 69.0619 24.49 80.5444 41.2034 80.5444C50.7722 80.5444 59.5754 77.8651 65.4443 73.3997V15.9872C62.3823 16.6251 59.4478 16.8803 56.3858 16.8803C45.1585 16.8803 30.9968 14.3286 14.4109 14.3286C7.26625 14.3286 2.80083 15.6045 0.121582 19.432ZM32.0174 74.9307C34.9518 72.5066 35.9725 69.3171 35.9725 64.5965V31.8076L29.7209 34.3592V31.68C36.3553 29.3835 43.8827 26.0663 52.6859 21.3457V57.1966C52.6859 67.1481 47.3274 70.9756 32.0174 74.9307Z" fill="black"/>
<path d="M94.5462 77.8651V15.0941C94.5462 12.4149 93.5255 9.60806 90.8463 6.80122C92.1221 6.92881 93.398 7.05639 94.5462 7.05639C101.181 7.05639 107.305 5.01506 113.684 0.932391C111.387 4.24956 109.346 9.09773 109.346 15.8596V45.2038L135.118 28.1076C137.414 32.3179 141.369 34.6144 145.197 34.6144C146.855 34.6144 148.386 34.1041 150.3 33.211C149.79 37.804 147.876 40.7384 143.921 42.9073V74.4204C143.921 79.3961 145.324 83.3512 148.131 86.1581C145.069 85.5201 142.007 85.1374 138.818 85.1374C131.545 85.1374 127.845 87.0511 127.845 89.9856C127.845 92.1545 129.632 93.1751 132.056 94.7061C135.883 97.0026 137.797 98.9164 137.797 103.509C137.797 110.016 133.587 113.971 125.677 114.609C128.228 111.42 129.376 108.358 129.376 104.402C129.376 97.8957 125.294 95.0889 125.294 91.2614C125.294 88.327 129.121 85.3926 129.121 74.0376V44.6935C126.442 43.928 124.528 42.0142 122.615 38.9522L109.346 47.7555V77.3548C113.429 78.6306 116.108 80.2892 118.277 82.7133C113.046 84.6271 108.58 88.1994 103.987 93.1751C98.6289 88.0718 93.0152 85.6477 86.3809 85.6477C88.2946 82.0754 90.7187 79.6513 94.5462 77.8651Z" fill="black"/>
<path d="M157.639 85.5201C159.808 81.5651 162.487 79.0134 165.932 77.4824V48.6486C165.932 42.7797 165.167 38.9522 161.849 35.7626C164.911 36.4006 168.101 36.9109 171.163 36.9109C181.752 36.9109 191.321 33.4661 197.445 28.1076C201.273 37.5488 206.759 44.9486 213.01 49.6692L180.604 67.7861V76.7169C187.366 77.8651 193.235 80.1616 199.104 83.734L208.162 77.9927L209.438 80.2892L189.79 93.5579C177.67 87.5615 167.973 85.265 162.615 85.265C161.722 85.265 160.063 85.265 157.639 85.5201ZM180.604 64.5965L196.935 55.5381C192.725 49.2865 189.152 43.0349 186.09 36.7833C184.304 37.4212 182.39 37.6764 180.604 38.0591V64.5965Z" fill="black"/>
<path d="M288.682 23.6422L282.941 27.087L282.048 25.1732L321.471 0.932391C324.406 5.78056 328.105 8.20464 332.443 8.20464C334.357 8.20464 336.654 7.31156 339.333 5.78056C336.271 15.0941 330.274 19.8147 321.471 19.8147C320.706 19.8147 319.813 19.8147 319.047 19.6871V80.5444C325.681 79.0134 333.081 74.2928 342.267 67.6585C333.719 85.3926 318.664 94.5786 298.123 94.5786C271.203 94.5786 253.597 76.4617 253.597 51.4554C253.597 24.9181 273.755 4.12197 300.547 2.33581C281.665 13.0528 273.5 24.7905 273.5 44.6935C273.5 67.9136 287.662 82.7133 306.034 82.7133C309.223 82.7133 312.668 82.203 316.623 81.3099V19.3044C313.051 17.6458 310.499 15.2217 308.33 11.6494L306.416 12.6701V54.1346C306.416 67.0206 300.93 72.1239 286.258 72.5066C288.427 69.1895 288.682 65.362 288.682 60.0035V23.6422Z" fill="black"/>
<path d="M344.784 85.5201C346.825 81.8202 349.377 79.141 352.949 77.2272V48.6486C352.949 42.7797 352.184 38.9522 348.867 35.7626C352.056 36.5281 355.246 36.9109 358.308 36.9109C368.004 36.9109 378.338 33.7213 385.993 28.1076C391.99 34.1041 397.859 37.0385 404.621 37.0385C405.769 37.0385 407.172 36.9109 408.958 36.6557C407.683 39.2074 405.386 41.1211 402.197 43.0349V73.017C402.197 76.9721 402.579 80.1616 405.769 84.3719C402.579 84.1167 399.517 83.8616 396.71 83.8616C385.611 83.8616 376.935 86.796 369.28 93.5579C362.646 88.0718 356.649 85.265 349.76 85.265C348.867 85.265 347.208 85.265 344.784 85.5201ZM367.749 76.3341C373.618 76.9721 377.956 79.141 381.911 83.8616C383.697 83.3512 385.611 82.8409 387.524 82.4581V45.2038C381.018 44.0556 376.552 41.6315 373.235 36.7833C371.449 37.4212 369.535 37.6764 367.749 38.0591V76.3341Z" fill="black"/>
<path d="M416.553 85.6477C418.466 82.0754 420.89 79.6513 424.718 77.8651V50.052C424.718 43.6728 422.804 40.9936 415.532 40.3556V38.6971C421.018 36.0178 425.866 32.7006 430.459 28.3628C436.966 32.1903 439.518 36.5281 439.518 44.0556V45.2038L464.269 28.3628C471.286 31.2972 474.093 36.273 474.093 44.1831V45.2038L499.865 28.1076C502.161 32.3179 505.989 34.6144 509.816 34.6144C511.475 34.6144 513.133 34.1041 515.047 33.211C514.537 37.804 512.495 40.7384 508.54 42.9073V70.5929C508.54 77.4824 510.326 80.2892 518.109 80.672V82.203C513.644 84.7546 509.944 87.9442 506.499 92.2821C496.547 90.2407 493.868 85.0098 493.868 74.6756V44.6935C491.189 43.928 489.148 42.0142 487.234 38.9522L474.093 47.7555V77.3548C478.175 78.6306 480.855 80.2892 483.024 82.7133C477.793 84.6271 473.2 88.1994 468.607 93.5579C463.248 88.0718 457.762 85.6477 451.128 85.6477C453.041 82.0754 455.466 79.6513 459.293 77.8651V50.052C459.293 44.6935 457.634 42.0142 451.128 40.1005L439.518 47.7555V77.3548C443.6 78.6306 446.28 80.2892 448.448 82.7133C443.218 84.6271 438.752 88.1994 434.159 93.5579C428.801 88.0718 423.187 85.6477 416.553 85.6477Z" fill="black"/>
<path d="M551.291 110.271C550.015 110.144 548.739 110.016 547.591 110.016C540.956 110.016 534.96 112.057 528.581 116.14C531.515 111.93 532.791 107.082 532.791 101.34V84.7546H531.005C528.07 84.7546 525.391 85.7753 523.222 88.0718V87.3063C523.222 80.4168 526.284 76.4617 532.791 74.6756V50.052C532.791 43.6728 530.877 40.9936 523.605 40.3556V38.5695C528.326 36.9109 533.046 33.3386 538.532 28.3628C544.911 32.0627 547.463 36.273 547.591 43.4176L570.045 28.1076C574.128 32.5731 577.7 34.8696 582.038 34.8696C584.207 34.8696 586.248 34.2316 588.545 33.211C588.035 37.5488 586.248 40.3556 582.166 42.6521V70.5929C582.166 76.3341 582.549 79.141 585.611 80.672C571.832 81.1823 561.88 84.6271 555.884 91.389C552.949 88.0718 550.525 85.9029 547.591 85.6477V101.978C547.591 105.04 548.867 107.72 551.291 110.271ZM547.591 45.9693V73.3997C554.735 73.9101 560.094 76.9721 564.814 82.5857L567.366 81.5651V44.5659C563.156 43.6728 560.349 41.8866 558.308 38.5695L547.591 45.9693Z" fill="black"/>
<path d="M619.688 76.9721C622.878 77.8651 624.792 79.5237 626.195 82.3306L639.464 73.5273V43.928C635.636 42.7797 632.702 41.1211 630.533 38.5695C635.764 36.6557 640.229 33.211 644.822 28.1076C650.308 33.3386 655.667 35.6351 661.918 35.6351H662.429C660.643 39.2074 658.091 41.6315 654.263 43.4176V71.2308C654.263 77.61 656.177 80.4168 663.449 81.0547V82.5857C657.963 85.265 653.115 88.7097 648.522 93.0476C642.015 89.2201 639.464 84.7546 639.464 77.2272V76.079L613.692 93.1751C611.268 88.8373 607.951 86.796 603.74 86.796C601.954 86.796 600.168 87.3063 598.127 88.1994C598.765 83.734 600.933 80.5444 604.889 78.3755V50.6899C604.889 43.8004 603.102 40.9936 595.32 39.7177V38.1867C599.785 36.6557 603.613 33.3386 607.058 28.1076C617.009 31.0421 619.688 36.4006 619.688 46.7348V76.9721Z" fill="black"/>
<path d="M680.588 21.0906C680.588 18.0286 679.313 15.3493 676.888 12.7976C678.164 12.9252 679.313 13.0528 680.461 13.0528C687.095 13.0528 693.092 10.8839 699.598 6.80122C697.302 10.1184 695.26 14.9666 695.26 21.7285V34.4868H703.553C705.467 34.4868 707.126 34.2316 708.912 33.5937C708.529 35.1247 708.402 36.4006 708.402 37.2936C708.402 38.3143 708.657 39.5901 708.912 41.1211C707.126 40.4832 705.467 40.2281 703.553 40.2281H695.26V77.0996C698.578 78.2479 701.257 80.0341 704.064 82.8409L709.295 80.2892L710.443 82.4581C704.319 85.5201 698.067 88.8373 692.581 93.5579C688.499 89.2201 684.799 87.0511 680.333 87.0511C678.292 87.0511 676.251 87.6891 673.826 88.4546C674.592 83.9892 676.761 80.9271 680.588 79.0134V40.2281H673.571C671.785 40.2281 670.127 40.4832 668.596 41.1211C668.596 39.4626 668.723 38.3143 668.723 37.5488C668.723 36.6557 668.596 35.3799 668.596 33.5937C670.254 34.2316 671.913 34.4868 673.571 34.4868H680.588V21.0906Z" fill="black"/>
<path d="M715.193 85.5201C717.362 81.5651 720.042 79.0134 723.486 77.4824V48.6486C723.486 42.7797 722.721 38.9522 719.404 35.7626C722.466 36.4006 725.655 36.9109 728.717 36.9109C739.307 36.9109 748.875 33.4661 754.999 28.1076C758.827 37.5488 764.313 44.9486 770.565 49.6692L738.158 67.7861V76.7169C744.92 77.8651 750.789 80.1616 756.658 83.734L765.716 77.9927L766.992 80.2892L747.344 93.5579C735.224 87.5615 725.528 85.265 720.169 85.265C719.276 85.265 717.617 85.265 715.193 85.5201ZM738.158 64.5965L754.489 55.5381C750.279 49.2865 746.706 43.0349 743.644 36.7833C741.858 37.4212 739.945 37.6764 738.158 38.0591V64.5965Z" fill="black"/>
<path d="M774.037 88.4546C774.803 84.1167 776.972 81.0547 780.799 79.0134V50.052C780.799 43.6728 778.12 40.7384 771.613 40.3556V38.6971C777.099 36.0178 781.82 32.7006 786.413 28.3628C792.664 31.9351 795.216 36.1454 795.471 43.1625L807.974 28.1076C811.674 34.1041 814.864 37.1661 818.564 37.1661C819.329 37.1661 820.605 36.9109 822.136 36.5281C820.605 44.9486 815.502 49.5416 809.25 49.5416C804.53 49.5416 800.957 46.8624 799.299 41.8866L795.471 46.0969V77.0996C798.788 78.1203 801.595 80.1616 804.53 83.0961L809.378 80.2892L810.526 82.4581C803.509 86.0305 797.385 89.4752 792.792 93.5579C788.837 89.2201 785.137 87.0511 780.672 87.0511C778.758 87.0511 776.461 87.5615 774.037 88.4546Z" fill="black"/>
<path d="M861.842 94.451C870.135 80.2892 887.232 71.486 907.517 71.486C918.745 71.486 927.931 74.2928 933.927 78.6306C943.113 69.0619 949.747 63.4482 949.747 56.3036C949.747 45.3314 939.541 42.0142 915.938 40.9936L909.941 47.6279C930.482 48.2658 940.179 51.0726 940.179 60.5138C940.179 64.9792 937.244 69.8274 931.375 73.5273C931.758 71.8687 932.013 70.7205 932.013 70.2101C932.013 63.9586 921.551 63.3206 897.438 62.0448C888.763 70.9756 880.342 75.3135 873.452 75.3135C868.222 75.3135 865.415 72.8894 865.415 68.6791C865.415 64.8516 868.222 62.0448 871.922 62.0448C876.132 62.0448 878.556 64.9792 878.556 70.2101V71.3584C882.766 71.1032 888.635 68.0412 894.376 61.7896C876.642 60.3862 868.732 56.176 868.732 45.3314C868.732 40.7384 870.135 37.4212 873.58 34.1041C873.58 34.3592 873.452 34.742 873.452 34.9971C873.452 42.0142 884.807 46.4796 906.752 47.5003L912.621 40.7384C888.89 39.8453 878.811 37.1661 878.811 24.6629C878.811 10.7563 892.59 0.932391 915.427 0.932391C927.42 0.932391 935.713 3.61164 943.751 8.07706L947.323 6.03573L948.982 8.20464C941.71 13.1804 933.799 18.5389 926.655 26.3215C949.237 28.7456 959.699 35.3799 959.699 49.4141C959.699 59.8759 951.661 66.1275 940.179 77.2272C935.458 81.8202 930.1 87.5615 923.976 94.451C911.09 89.4752 899.862 86.796 889.783 86.796C878.683 86.796 869.115 89.4752 861.842 94.451ZM923.72 26.0663L929.079 20.0699C919.127 11.3942 909.814 7.18398 900.5 7.18398C892.59 7.18398 887.742 10.7563 887.742 15.8596C887.742 24.9181 898.331 24.6629 923.72 26.0663Z" fill="black"/>
<path d="M968.616 85.5201C970.657 81.8202 973.336 79.141 976.909 77.2272V48.6486C976.909 43.8004 976.909 39.9729 972.826 35.7626C975.76 36.4006 978.695 36.7833 981.629 36.7833C990.432 36.7833 996.812 33.4661 1004.59 28.1076C1006 34.742 1009.19 37.9316 1014.55 37.9316C1015.44 37.9316 1016.84 37.804 1018.63 37.4212C1017.35 43.5452 1012.38 47.2451 1005.87 47.2451C1000 47.2451 995.408 44.1831 991.581 38.0591V76.7169C997.067 77.61 1001.79 79.9065 1005.61 83.734L1014.67 77.9927L1016.08 80.2892L996.429 93.5579C988.519 87.9442 980.864 85.265 974.485 85.265C972.698 85.265 970.657 85.3926 968.616 85.5201Z" fill="black"/>
<path d="M1031.23 43.928C1027.4 42.7797 1024.47 41.1211 1022.3 38.5695C1027.53 36.6557 1032 33.0834 1036.59 28.1076C1042.08 33.3386 1047.31 35.6351 1053.56 35.6351H1054.07C1052.15 39.2074 1049.73 41.6315 1045.9 43.4176V71.2308C1045.9 77.61 1047.82 80.4168 1055.09 81.0547V82.5857C1049.6 85.265 1044.76 88.7097 1040.16 93.0476C1032.76 88.7097 1031.23 84.2443 1031.23 76.079V43.928ZM1024.72 14.0735C1029.96 9.86322 1034.55 5.39781 1038.89 0.932391C1041.06 5.78056 1044.24 8.20464 1047.82 8.20464C1048.97 8.20464 1050.11 7.94948 1051.64 7.31156C1051.01 13.9459 1045.78 18.4113 1040.16 18.4113C1035.19 18.4113 1032.51 14.3286 1029.45 14.3286C1028.17 14.3286 1027.28 14.839 1026.26 15.8596L1024.72 14.0735Z" fill="black"/>
<path d="M1061.31 85.5201C1063.48 81.5651 1066.16 79.0134 1069.61 77.4824V48.6486C1069.61 42.7797 1068.84 38.9522 1065.52 35.7626C1068.59 36.4006 1071.77 36.9109 1074.84 36.9109C1085.43 36.9109 1095 33.4661 1101.12 28.1076C1104.95 37.5488 1110.43 44.9486 1116.68 49.6692L1084.28 67.7861V76.7169C1091.04 77.8651 1096.91 80.1616 1102.78 83.734L1111.84 77.9927L1113.11 80.2892L1093.46 93.5579C1081.34 87.5615 1071.65 85.265 1066.29 85.265C1065.4 85.265 1063.74 85.265 1061.31 85.5201ZM1084.28 64.5965L1100.61 55.5381C1096.4 49.2865 1092.83 43.0349 1089.76 36.7833C1087.98 37.4212 1086.06 37.6764 1084.28 38.0591V64.5965Z" fill="black"/>
<path d="M1161.75 44.6935C1159.07 43.928 1157.16 42.0142 1155.24 38.9522L1141.97 47.7555V77.3548C1146.06 78.6306 1148.74 80.2892 1150.9 82.7133C1145.67 84.6271 1141.21 88.1994 1136.62 93.5579C1131.26 88.0718 1125.64 85.6477 1119.01 85.6477C1120.92 82.0754 1123.35 79.6513 1127.17 77.8651V50.052C1127.17 43.6728 1125.26 40.9936 1117.99 40.3556V38.6971C1123.47 36.0178 1128.32 32.7006 1132.92 28.3628C1139.42 32.1903 1141.97 36.5281 1141.97 44.0556V45.2038L1167.75 28.1076C1170.04 32.3179 1174 34.6144 1177.82 34.6144C1179.48 34.6144 1181.01 34.1041 1182.93 33.211C1182.42 37.804 1180.5 40.7384 1176.55 42.9073V70.5929C1176.55 77.4824 1178.33 80.2892 1186.12 80.672V82.203C1181.65 84.7546 1177.82 87.9442 1174.38 92.6648C1164.43 90.2407 1161.75 85.0098 1161.75 74.6756V44.6935Z" fill="black"/>
<path d="M1190.27 85.5201C1192.31 81.8202 1194.99 79.141 1198.56 77.2272V48.6486C1198.56 43.8004 1198.56 39.9729 1194.48 35.7626C1197.41 36.4006 1200.35 36.7833 1203.28 36.7833C1212.08 36.7833 1218.46 33.4661 1226.25 28.1076C1227.65 34.742 1230.84 37.9316 1236.2 37.9316C1237.09 37.9316 1238.49 37.804 1240.28 37.4212C1239 43.5452 1234.03 47.2451 1227.52 47.2451C1221.65 47.2451 1217.06 44.1831 1213.23 38.0591V76.7169C1218.72 77.61 1223.44 79.9065 1227.27 83.734L1236.32 77.9927L1237.73 80.2892L1218.08 93.5579C1210.17 87.9442 1202.51 85.265 1196.14 85.265C1194.35 85.265 1192.31 85.3926 1190.27 85.5201Z" fill="black"/>
<path d="M1244.59 85.5201C1246.76 81.5651 1249.44 79.0134 1252.88 77.4824V48.6486C1252.88 42.7797 1252.12 38.9522 1248.8 35.7626C1251.86 36.4006 1255.05 36.9109 1258.11 36.9109C1268.7 36.9109 1278.27 33.4661 1284.4 28.1076C1288.22 37.5488 1293.71 44.9486 1299.96 49.6692L1267.55 67.7861V76.7169C1274.32 77.8651 1280.19 80.1616 1286.05 83.734L1295.11 77.9927L1296.39 80.2892L1276.74 93.5579C1264.62 87.5615 1254.92 85.265 1249.57 85.265C1248.67 85.265 1247.01 85.265 1244.59 85.5201ZM1267.55 64.5965L1283.89 55.5381C1279.67 49.2865 1276.1 43.0349 1273.04 36.7833C1271.25 37.4212 1269.34 37.6764 1267.55 38.0591V64.5965Z" fill="black"/>
<path d="M1340.04 19.5596C1344.37 7.82189 1352.8 1.18755 1361.09 1.18755C1368.23 1.18755 1373.85 6.03573 1380.35 6.03573C1383.8 6.03573 1386.86 5.01506 1390.18 2.84614C1383.29 13.1804 1373.72 18.7941 1367.21 18.7941C1361.47 18.7941 1355.6 14.5838 1349.86 14.5838C1346.67 14.5838 1343.48 16.37 1340.04 19.5596ZM1371.93 22.3664C1369.76 25.4284 1368.87 28.8731 1368.87 33.211V58.4725C1368.87 70.2101 1362.49 77.61 1347.56 82.5857C1351.9 78.8858 1352.16 76.079 1352.16 72.5066V58.2173H1347.31C1343.61 58.2173 1341.95 60.1311 1341.44 64.4689C1340.42 61.4069 1339.78 58.7276 1339.78 56.176C1339.78 48.0106 1343.86 43.6728 1351.77 43.6728H1352.16C1352.16 32.7006 1358.41 26.3215 1371.93 22.3664ZM1370.91 72.5066C1375.12 68.8067 1375.12 64.9792 1375.12 59.4931V32.7006C1375.12 25.3008 1379.33 20.0699 1387.12 14.3286C1398.47 5.90814 1407.27 1.69789 1413.14 1.69789C1419.27 1.69789 1425.13 5.14264 1432.15 11.5218L1435.09 10.246L1435.85 12.6701C1430.24 15.2217 1424.75 18.2837 1419.65 22.7491C1412.76 13.4356 1406.25 9.09773 1401.91 9.09773C1395.92 9.09773 1391.84 15.3493 1391.84 26.3215V47.6279L1398.34 44.4383V31.2972H1400.64V43.0349L1420.92 32.1903C1423.6 36.4006 1428.2 38.4419 1435.72 39.0798C1433.81 41.2487 1431.9 42.7797 1429.86 44.0556V77.3548C1429.86 81.8202 1430.24 84.8822 1433.05 87.8167C1429.35 86.9236 1425.65 86.4132 1422.07 86.4132C1415.06 86.4132 1411.48 89.2201 1411.48 92.4096C1411.48 95.4716 1414.16 96.6199 1417.74 99.2992C1420.29 101.213 1421.95 104.147 1421.95 107.209C1421.95 112.695 1417.35 116.395 1412.12 116.395C1411.87 116.395 1410.85 116.268 1409.19 116.14C1411.74 113.971 1413.01 111.164 1413.01 107.592C1413.01 101.978 1408.55 98.2785 1408.55 93.9406C1408.55 87.9442 1413.14 88.0718 1413.14 81.5651V71.7411C1410.72 70.7205 1408.68 70.0826 1406.89 70.0826C1405.23 70.0826 1403.19 70.7205 1400.64 71.7411V80.672L1403.45 82.8409L1407.27 80.7996L1408.29 83.0961C1402.3 86.5408 1396.68 90.2407 1391.58 94.7061C1385.71 90.1131 1378.95 88.327 1370.53 88.327C1361.6 88.327 1354.45 90.4959 1346.42 94.5786C1355.35 82.4581 1368.23 75.9514 1382.27 75.9514C1387.75 75.9514 1392.86 77.0996 1398.34 79.2686V47.1176L1391.84 50.3071C1391.96 51.583 1391.96 52.8588 1391.96 54.0071C1391.96 65.2344 1386.6 69.1895 1370.91 72.5066ZM1413.14 69.3171V56.8139C1410.97 57.8346 1408.93 58.3449 1406.89 58.3449C1404.98 58.3449 1402.94 57.8346 1400.64 56.8139V69.3171C1402.94 68.2964 1404.98 67.7861 1406.89 67.7861C1408.93 67.7861 1410.97 68.2964 1413.14 69.3171ZM1413.14 54.5174V47.1176C1410.46 46.0969 1408.55 44.6935 1407.02 42.5246L1400.64 45.8417V54.5174C1403.19 55.5381 1405.23 56.176 1406.89 56.176C1408.8 56.176 1410.72 55.5381 1413.14 54.5174Z" fill="black"/>
<path d="M1446.73 37.804C1453.11 35.8902 1457.32 33.211 1460.38 28.2352C1462.81 33.9765 1465.61 36.6557 1469.95 36.6557C1473.65 36.6557 1479.14 33.9765 1484.49 28.1076C1487.68 32.8282 1490.49 35.1247 1494.32 35.1247C1496.23 35.1247 1498.02 34.4868 1500.06 33.211C1498.53 38.0591 1496.49 40.866 1492.92 42.9073V68.9343C1492.92 76.9721 1495.85 80.7996 1503.76 81.6926C1499.81 84.7546 1495.72 88.4546 1491.64 92.6648C1485.26 92.1545 1481.05 88.1994 1479.14 80.9271L1461.15 93.5579C1449.66 91.7717 1444.31 85.9029 1444.31 75.1859C1444.31 65.1068 1449.15 59.6207 1460.89 53.4967L1446.73 37.804ZM1452.09 40.3556L1473.52 64.0861L1472.25 65.6171L1462.68 55.4105C1459.36 59.1104 1457.7 62.1724 1457.7 66.2551C1457.7 74.548 1463.19 79.9065 1474.03 81.8202L1478.88 78.5031V45.0762C1475.82 43.6728 1473.65 41.6315 1471.99 38.6971C1469.31 42.1418 1466.25 43.8004 1462.68 43.8004C1459.49 43.8004 1456.17 42.5246 1452.09 40.3556Z" fill="black"/>
<path d="M1514.77 16.37C1514.77 12.6701 1514.13 9.99081 1511.07 6.80122C1512.35 6.92881 1513.62 7.05639 1514.77 7.05639C1521.41 7.05639 1527.4 5.01506 1533.78 0.932391C1529.7 7.05639 1529.44 11.2666 1529.44 15.8596V77.61C1533.27 78.6306 1535.69 80.4168 1537.61 83.2236L1543.35 80.2892L1544.63 82.4581C1536.33 86.4132 1530.34 90.1132 1526.76 93.5579C1522.68 89.2201 1519.11 87.0511 1514.52 87.0511C1512.73 87.0511 1510.56 87.5615 1507.88 88.4546C1508.52 83.6064 1510.69 80.672 1514.77 79.0134V16.37Z" fill="black"/>
<path d="M1554.27 16.37C1554.27 12.6701 1553.63 9.99081 1550.57 6.80122C1551.84 6.92881 1553.12 7.05639 1554.27 7.05639C1560.9 7.05639 1566.9 5.01506 1573.28 0.932391C1569.19 7.05639 1568.94 11.2666 1568.94 15.8596V77.61C1572.77 78.6306 1575.19 80.4168 1577.1 83.2236L1582.85 80.2892L1584.12 82.4581C1575.83 86.4132 1569.83 90.1132 1566.26 93.5579C1562.18 89.2201 1558.61 87.0511 1554.01 87.0511C1552.23 87.0511 1550.06 87.5615 1547.38 88.4546C1548.02 83.6064 1550.18 80.672 1554.27 79.0134V16.37Z" fill="black"/>
</svg>
