<svg width="595" height="65" viewBox="0 0 595 65" fill="none" xmlns="http://www.w3.org/2000/svg">
<rect width="595" height="65" fill="#A51C30"/>
<path d="M131.695 23.3175V39H130.233V23.3175H131.695ZM137.478 23.2275V23.9025H124.45V23.2275H137.478ZM137.478 23.835V25.6575L137.253 25.635V25.2525C137.253 24.8775 137.118 24.5625 136.848 24.3075C136.593 24.0525 136.285 23.9175 135.925 23.9025V23.835H137.478ZM137.478 22.8225V23.475L134.733 23.2275C135.063 23.2275 135.408 23.205 135.768 23.16C136.143 23.115 136.488 23.0625 136.803 23.0025C137.118 22.9425 137.343 22.8825 137.478 22.8225ZM130.3 37.3575V39H128.5V38.775C128.5 38.775 128.545 38.775 128.635 38.775C128.74 38.775 128.793 38.775 128.793 38.775C129.183 38.775 129.513 38.64 129.782 38.37C130.068 38.085 130.218 37.7475 130.233 37.3575H130.3ZM131.628 37.3575H131.695C131.71 37.7475 131.853 38.085 132.123 38.37C132.408 38.64 132.745 38.775 133.135 38.775C133.135 38.775 133.18 38.775 133.27 38.775C133.375 38.775 133.428 38.775 133.428 38.775V39H131.628V37.3575ZM126.003 23.835V23.9025C125.628 23.9175 125.313 24.0525 125.058 24.3075C124.803 24.5625 124.675 24.8775 124.675 25.2525V25.635L124.45 25.6575V23.835H126.003ZM124.45 22.8225C124.6 22.8825 124.825 22.9425 125.125 23.0025C125.44 23.0625 125.785 23.115 126.16 23.16C126.535 23.205 126.88 23.2275 127.195 23.2275L124.45 23.475V22.8225ZM153.119 23.25V39H151.656V23.25H153.119ZM142.454 23.25V39H140.991V23.25H142.454ZM151.859 30.8775V31.5525H142.229V30.8775H151.859ZM141.059 37.3575V39H139.259V38.775C139.259 38.775 139.304 38.775 139.394 38.775C139.499 38.775 139.551 38.775 139.551 38.775C139.941 38.775 140.271 38.64 140.541 38.37C140.826 38.085 140.976 37.7475 140.991 37.3575H141.059ZM141.059 24.8925H140.991C140.976 24.5025 140.826 24.1725 140.541 23.9025C140.271 23.6175 139.941 23.475 139.551 23.475C139.551 23.475 139.499 23.475 139.394 23.475C139.304 23.475 139.259 23.475 139.259 23.475V23.25H141.059V24.8925ZM142.386 37.3575H142.454C142.469 37.7475 142.611 38.085 142.881 38.37C143.166 38.64 143.504 38.775 143.894 38.775C143.894 38.775 143.939 38.775 144.029 38.775C144.119 38.775 144.171 38.775 144.186 38.775V39H142.386V37.3575ZM142.386 24.8925V23.25H144.186V23.475C144.171 23.475 144.119 23.475 144.029 23.475C143.939 23.475 143.894 23.475 143.894 23.475C143.504 23.475 143.166 23.6175 142.881 23.9025C142.611 24.1725 142.469 24.5025 142.454 24.8925H142.386ZM151.724 37.3575V39H149.924V38.775C149.939 38.775 149.991 38.775 150.081 38.775C150.171 38.775 150.216 38.775 150.216 38.775C150.606 38.775 150.944 38.64 151.229 38.37C151.514 38.085 151.656 37.7475 151.656 37.3575H151.724ZM151.724 24.8925H151.656C151.656 24.5025 151.514 24.1725 151.229 23.9025C150.944 23.6175 150.606 23.475 150.216 23.475C150.216 23.475 150.171 23.475 150.081 23.475C149.991 23.475 149.939 23.475 149.924 23.475V23.25H151.724V24.8925ZM153.051 37.3575H153.119C153.134 37.7475 153.276 38.085 153.546 38.37C153.831 38.64 154.169 38.775 154.559 38.775C154.559 38.775 154.604 38.775 154.694 38.775C154.799 38.775 154.851 38.775 154.851 38.775V39H153.051V37.3575ZM153.051 24.8925V23.25H154.851V23.475C154.851 23.475 154.799 23.475 154.694 23.475C154.604 23.475 154.559 23.475 154.559 23.475C154.169 23.475 153.831 23.6175 153.546 23.9025C153.276 24.1725 153.134 24.5025 153.119 24.8925H153.051ZM160.757 23.25V39H159.294V23.25H160.757ZM166.832 38.3025V39H160.689V38.3025H166.832ZM165.864 30.9V31.575H160.689V30.9H165.864ZM166.832 23.25V23.9475H160.689V23.25H166.832ZM168.204 35.355L166.899 39H163.164L163.974 38.3025C164.769 38.3025 165.414 38.1825 165.909 37.9425C166.419 37.6875 166.832 37.335 167.147 36.885C167.462 36.435 167.739 35.925 167.979 35.355H168.204ZM165.864 31.53V33.015H165.639V32.6775C165.639 32.3775 165.534 32.1225 165.324 31.9125C165.114 31.6875 164.859 31.575 164.559 31.575V31.53H165.864ZM165.864 29.46V30.945H164.559V30.9C164.859 30.885 165.114 30.7725 165.324 30.5625C165.534 30.3375 165.639 30.075 165.639 29.775V29.46H165.864ZM166.832 23.88V25.68H166.607V25.275C166.607 24.915 166.479 24.6075 166.224 24.3525C165.969 24.0825 165.654 23.94 165.279 23.925V23.88H166.832ZM166.832 22.845V23.4975L164.087 23.25C164.417 23.25 164.762 23.2275 165.122 23.1825C165.497 23.1375 165.842 23.085 166.157 23.025C166.472 22.965 166.697 22.905 166.832 22.845ZM159.362 37.3575V39H157.562V38.775C157.562 38.775 157.607 38.775 157.697 38.775C157.802 38.775 157.854 38.775 157.854 38.775C158.244 38.775 158.574 38.64 158.844 38.37C159.129 38.085 159.279 37.7475 159.294 37.3575H159.362ZM159.362 24.8925H159.294C159.294 24.5025 159.152 24.1725 158.867 23.9025C158.582 23.6175 158.244 23.475 157.854 23.475C157.854 23.475 157.809 23.475 157.719 23.475C157.629 23.475 157.584 23.475 157.584 23.475L157.562 23.25H159.362V24.8925ZM190.798 32.43L190.528 35.9625C190.138 36.6075 189.643 37.185 189.043 37.695C188.458 38.19 187.76 38.5875 186.95 38.8875C186.155 39.1725 185.24 39.315 184.205 39.315C182.645 39.3 181.258 38.955 180.043 38.28C178.828 37.605 177.875 36.66 177.185 35.445C176.51 34.215 176.173 32.7675 176.173 31.1025C176.173 29.4675 176.51 28.0425 177.185 26.8275C177.86 25.5975 178.805 24.645 180.02 23.97C181.25 23.28 182.69 22.935 184.34 22.935C185.45 22.935 186.448 23.085 187.333 23.385C188.233 23.67 189.013 24.03 189.673 24.465L190.123 27.6375H189.92C189.59 26.3175 188.915 25.32 187.895 24.645C186.875 23.955 185.69 23.61 184.34 23.61C183.02 23.61 181.873 23.925 180.898 24.555C179.938 25.17 179.188 26.04 178.648 27.165C178.123 28.275 177.86 29.58 177.86 31.08C177.86 32.58 178.123 33.8925 178.648 35.0175C179.188 36.1425 179.93 37.02 180.875 37.65C181.835 38.28 182.945 38.61 184.205 38.64C185.27 38.64 186.253 38.445 187.153 38.055C188.068 37.65 188.833 36.9975 189.448 36.0975C190.063 35.1825 190.453 33.96 190.618 32.43H190.798ZM201.57 22.935C203.175 22.935 204.585 23.28 205.8 23.97C207.015 24.645 207.96 25.5975 208.635 26.8275C209.325 28.0575 209.67 29.49 209.67 31.125C209.67 32.76 209.325 34.1925 208.635 35.4225C207.96 36.6525 207.015 37.6125 205.8 38.3025C204.585 38.9775 203.175 39.315 201.57 39.315C199.98 39.315 198.577 38.9775 197.362 38.3025C196.147 37.6125 195.195 36.6525 194.505 35.4225C193.83 34.1925 193.492 32.76 193.492 31.125C193.492 29.49 193.83 28.0575 194.505 26.8275C195.195 25.5975 196.147 24.645 197.362 23.97C198.577 23.28 199.98 22.935 201.57 22.935ZM201.57 38.64C202.845 38.64 203.955 38.325 204.9 37.695C205.86 37.065 206.602 36.1875 207.127 35.0625C207.667 33.9375 207.937 32.625 207.937 31.125C207.937 29.625 207.667 28.3125 207.127 27.1875C206.602 26.0625 205.86 25.185 204.9 24.555C203.955 23.925 202.845 23.61 201.57 23.61C200.31 23.61 199.2 23.925 198.24 24.555C197.295 25.185 196.552 26.0625 196.012 27.1875C195.487 28.3125 195.225 29.625 195.225 31.125C195.225 32.625 195.487 33.9375 196.012 35.0625C196.552 36.1875 197.295 37.065 198.24 37.695C199.2 38.325 200.31 38.64 201.57 38.64ZM227.113 22.935L227.293 24.4425L221.645 37.02C221.645 37.02 221.585 37.1475 221.465 37.4025C221.36 37.6575 221.248 37.965 221.128 38.325C221.008 38.67 220.925 39 220.88 39.315H220.655L220.34 37.8975L227.113 22.935ZM213.275 37.3575V39H210.778V38.775C210.793 38.775 210.853 38.775 210.958 38.775C211.078 38.775 211.138 38.775 211.138 38.775C211.543 38.775 211.903 38.655 212.218 38.415C212.533 38.16 212.72 37.8075 212.78 37.3575H213.275ZM213.928 37.7175C213.928 37.7325 213.928 37.7475 213.928 37.7625C213.928 37.7775 213.928 37.8 213.928 37.83C213.928 38.07 214.01 38.295 214.175 38.505C214.355 38.7 214.565 38.7975 214.805 38.7975H215.143V39H213.77V37.7175H213.928ZM214.468 22.935H214.693L215.143 24.2625L213.815 39H212.6L214.468 22.935ZM214.693 22.935L221.173 36.9525L220.655 39.315L214.265 25.455L214.693 22.935ZM227.315 22.935L229.25 39H227.495L226.258 25.365L227.113 22.935H227.315ZM228.575 37.3575H229.048C229.123 37.8075 229.318 38.16 229.633 38.415C229.948 38.655 230.3 38.775 230.69 38.775C230.69 38.775 230.75 38.775 230.87 38.775C230.99 38.775 231.05 38.775 231.05 38.775V39H228.575V37.3575ZM227.383 37.7175H227.54V39H226.168V38.7975H226.505C226.76 38.7975 226.97 38.7 227.135 38.505C227.3 38.295 227.383 38.07 227.383 37.83C227.383 37.8 227.383 37.7775 227.383 37.7625C227.383 37.7475 227.383 37.7325 227.383 37.7175ZM235.633 23.25H238.603C239.563 23.25 240.388 23.4225 241.078 23.7675C241.768 24.1125 242.3 24.615 242.675 25.275C243.05 25.92 243.238 26.6925 243.238 27.5925C243.238 28.2825 243.103 28.905 242.833 29.46C242.563 30 242.203 30.4575 241.753 30.8325C241.303 31.2075 240.793 31.4925 240.223 31.6875C239.653 31.8675 239.06 31.935 238.445 31.89C237.845 31.845 237.26 31.6725 236.69 31.3725V31.1475C236.69 31.1475 236.818 31.17 237.073 31.215C237.328 31.245 237.65 31.2525 238.04 31.2375C238.445 31.2075 238.865 31.125 239.3 30.99C239.75 30.84 240.163 30.585 240.538 30.225C240.928 29.865 241.22 29.3625 241.415 28.7175C241.46 28.5525 241.498 28.35 241.528 28.11C241.558 27.855 241.565 27.6075 241.55 27.3675C241.535 26.3325 241.265 25.5 240.74 24.87C240.215 24.24 239.473 23.925 238.513 23.925H235.858C235.858 23.925 235.835 23.8725 235.79 23.7675C235.76 23.6475 235.723 23.535 235.678 23.43C235.648 23.31 235.633 23.25 235.633 23.25ZM235.925 23.25V39H234.463V23.25H235.925ZM234.53 37.3575V39H232.73V38.775C232.73 38.775 232.775 38.775 232.865 38.775C232.97 38.775 233.023 38.775 233.023 38.775C233.413 38.775 233.743 38.64 234.013 38.37C234.298 38.085 234.448 37.7475 234.463 37.3575H234.53ZM234.53 24.8925H234.463C234.463 24.5025 234.32 24.1725 234.035 23.9025C233.75 23.6175 233.413 23.475 233.023 23.475C233.023 23.475 232.978 23.475 232.888 23.475C232.798 23.475 232.753 23.475 232.753 23.475L232.73 23.25H234.53V24.8925ZM235.858 37.3575H235.925C235.94 37.7475 236.083 38.085 236.353 38.37C236.638 38.64 236.975 38.775 237.365 38.775C237.365 38.775 237.41 38.775 237.5 38.775C237.605 38.775 237.658 38.775 237.658 38.775V39H235.858V37.3575ZM248.506 23.25V33.15C248.506 34.23 248.701 35.1825 249.091 36.0075C249.496 36.8325 250.059 37.4775 250.779 37.9425C251.499 38.3925 252.331 38.6175 253.276 38.6175C254.281 38.6175 255.159 38.4 255.909 37.965C256.659 37.53 257.244 36.93 257.664 36.165C258.084 35.385 258.294 34.4775 258.294 33.4425V23.25H259.351V33.4425C259.351 34.6125 259.096 35.64 258.586 36.525C258.091 37.395 257.386 38.0775 256.471 38.5725C255.556 39.0675 254.491 39.315 253.276 39.315C252.031 39.315 250.936 39.075 249.991 38.595C249.061 38.1 248.334 37.4175 247.809 36.5475C247.299 35.6625 247.044 34.635 247.044 33.465V23.25H248.506ZM247.111 23.25V24.6H247.044C247.044 24.27 246.924 24 246.684 23.79C246.459 23.58 246.181 23.475 245.851 23.475C245.851 23.475 245.791 23.475 245.671 23.475C245.551 23.475 245.491 23.475 245.491 23.475V23.25H247.111ZM250.059 23.25V23.475C250.059 23.475 249.999 23.475 249.879 23.475C249.759 23.475 249.699 23.475 249.699 23.475C249.369 23.475 249.084 23.58 248.844 23.79C248.619 24 248.506 24.27 248.506 24.6H248.461V23.25H250.059ZM258.361 23.25V24.6H258.294C258.294 24.27 258.174 24 257.934 23.79C257.709 23.58 257.431 23.475 257.101 23.475C257.101 23.475 257.041 23.475 256.921 23.475C256.801 23.475 256.741 23.475 256.741 23.475V23.25H258.361ZM260.904 23.25V23.475C260.904 23.475 260.844 23.475 260.724 23.475C260.604 23.475 260.544 23.475 260.544 23.475C260.214 23.475 259.929 23.58 259.689 23.79C259.464 24 259.351 24.27 259.351 24.6H259.306V23.25H260.904ZM269.727 23.3175V39H268.265V23.3175H269.727ZM275.51 23.2275V23.9025H262.482V23.2275H275.51ZM275.51 23.835V25.6575L275.285 25.635V25.2525C275.285 24.8775 275.15 24.5625 274.88 24.3075C274.625 24.0525 274.317 23.9175 273.957 23.9025V23.835H275.51ZM275.51 22.8225V23.475L272.765 23.2275C273.095 23.2275 273.44 23.205 273.8 23.16C274.175 23.115 274.52 23.0625 274.835 23.0025C275.15 22.9425 275.375 22.8825 275.51 22.8225ZM268.332 37.3575V39H266.532V38.775C266.532 38.775 266.577 38.775 266.667 38.775C266.772 38.775 266.825 38.775 266.825 38.775C267.215 38.775 267.545 38.64 267.815 38.37C268.1 38.085 268.25 37.7475 268.265 37.3575H268.332ZM269.66 37.3575H269.727C269.742 37.7475 269.885 38.085 270.155 38.37C270.44 38.64 270.777 38.775 271.167 38.775C271.167 38.775 271.212 38.775 271.302 38.775C271.407 38.775 271.46 38.775 271.46 38.775V39H269.66V37.3575ZM264.035 23.835V23.9025C263.66 23.9175 263.345 24.0525 263.09 24.3075C262.835 24.5625 262.707 24.8775 262.707 25.2525V25.635L262.482 25.6575V23.835H264.035ZM262.482 22.8225C262.632 22.8825 262.857 22.9425 263.157 23.0025C263.472 23.0625 263.817 23.115 264.192 23.16C264.567 23.205 264.912 23.2275 265.227 23.2275L262.482 23.475V22.8225ZM280.486 23.25V39H279.023V23.25H280.486ZM286.561 38.3025V39H280.418V38.3025H286.561ZM285.593 30.9V31.575H280.418V30.9H285.593ZM286.561 23.25V23.9475H280.418V23.25H286.561ZM287.933 35.355L286.628 39H282.893L283.703 38.3025C284.498 38.3025 285.143 38.1825 285.638 37.9425C286.148 37.6875 286.561 37.335 286.876 36.885C287.191 36.435 287.468 35.925 287.708 35.355H287.933ZM285.593 31.53V33.015H285.368V32.6775C285.368 32.3775 285.263 32.1225 285.053 31.9125C284.843 31.6875 284.588 31.575 284.288 31.575V31.53H285.593ZM285.593 29.46V30.945H284.288V30.9C284.588 30.885 284.843 30.7725 285.053 30.5625C285.263 30.3375 285.368 30.075 285.368 29.775V29.46H285.593ZM286.561 23.88V25.68H286.336V25.275C286.336 24.915 286.208 24.6075 285.953 24.3525C285.698 24.0825 285.383 23.94 285.008 23.925V23.88H286.561ZM286.561 22.845V23.4975L283.816 23.25C284.146 23.25 284.491 23.2275 284.851 23.1825C285.226 23.1375 285.571 23.085 285.886 23.025C286.201 22.965 286.426 22.905 286.561 22.845ZM279.091 37.3575V39H277.291V38.775C277.291 38.775 277.336 38.775 277.426 38.775C277.531 38.775 277.583 38.775 277.583 38.775C277.973 38.775 278.303 38.64 278.573 38.37C278.858 38.085 279.008 37.7475 279.023 37.3575H279.091ZM279.091 24.8925H279.023C279.023 24.5025 278.881 24.1725 278.596 23.9025C278.311 23.6175 277.973 23.475 277.583 23.475C277.583 23.475 277.538 23.475 277.448 23.475C277.358 23.475 277.313 23.475 277.313 23.475L277.291 23.25H279.091V24.8925ZM292.96 23.25H296.132C296.807 23.25 297.415 23.3475 297.955 23.5425C298.51 23.7375 298.975 24.0225 299.35 24.3975C299.725 24.7575 300.01 25.2 300.205 25.725C300.415 26.235 300.52 26.82 300.52 27.48C300.52 28.2 300.347 28.89 300.002 29.55C299.672 30.21 299.215 30.75 298.63 31.17C298.06 31.575 297.415 31.7775 296.695 31.7775C296.95 31.8825 297.227 32.1 297.527 32.43C297.827 32.745 298.09 33.0525 298.315 33.3525C298.315 33.3525 298.412 33.5025 298.607 33.8025C298.817 34.0875 299.072 34.44 299.372 34.86C299.687 35.28 300.002 35.6925 300.317 36.0975C300.632 36.5025 300.902 36.825 301.127 37.065C301.427 37.395 301.727 37.6875 302.027 37.9425C302.327 38.1975 302.65 38.4 302.995 38.55C303.355 38.7 303.752 38.775 304.187 38.775V39H302.95C302.26 39 301.66 38.895 301.15 38.685C300.655 38.475 300.235 38.22 299.89 37.92C299.545 37.605 299.252 37.305 299.012 37.02C298.967 36.96 298.84 36.7875 298.63 36.5025C298.435 36.2175 298.195 35.88 297.91 35.49C297.64 35.085 297.37 34.6875 297.1 34.2975C296.83 33.9075 296.597 33.5775 296.402 33.3075C296.207 33.0225 296.095 32.8575 296.065 32.8125C295.78 32.4375 295.465 32.0925 295.12 31.7775C294.775 31.4625 294.4 31.305 293.995 31.305V31.08C293.995 31.08 294.107 31.0875 294.332 31.1025C294.572 31.1025 294.857 31.095 295.187 31.08C295.577 31.065 296.005 31.005 296.47 30.9C296.935 30.795 297.37 30.5775 297.775 30.2475C298.18 29.9175 298.487 29.415 298.697 28.74C298.742 28.575 298.78 28.3725 298.81 28.1325C298.84 27.8775 298.847 27.63 298.832 27.39C298.817 26.37 298.555 25.56 298.045 24.96C297.55 24.345 296.882 24.015 296.042 23.97C295.622 23.94 295.187 23.9325 294.737 23.9475C294.302 23.9475 293.935 23.9475 293.635 23.9475C293.335 23.9475 293.185 23.9475 293.185 23.9475C293.185 23.9325 293.162 23.8725 293.117 23.7675C293.087 23.6475 293.05 23.535 293.005 23.43C292.975 23.31 292.96 23.25 292.96 23.25ZM293.252 23.25V39H291.79V23.25H293.252ZM291.857 37.3575V39H290.057V38.775C290.057 38.775 290.102 38.775 290.192 38.775C290.297 38.775 290.35 38.775 290.35 38.775C290.74 38.775 291.07 38.64 291.34 38.37C291.625 38.085 291.775 37.7475 291.79 37.3575H291.857ZM291.857 24.8925H291.79C291.775 24.5025 291.625 24.1725 291.34 23.9025C291.07 23.6175 290.74 23.475 290.35 23.475C290.35 23.475 290.297 23.475 290.192 23.475C290.102 23.475 290.057 23.475 290.057 23.475V23.25H291.857V24.8925ZM293.185 37.3575H293.252C293.252 37.7475 293.395 38.085 293.68 38.37C293.965 38.64 294.302 38.775 294.692 38.775C294.692 38.775 294.737 38.775 294.827 38.775C294.917 38.775 294.962 38.775 294.962 38.775V39H293.185V37.3575ZM315.207 22.935C315.447 22.935 315.702 22.95 315.972 22.98C316.257 23.01 316.527 23.055 316.782 23.115C317.052 23.16 317.292 23.2125 317.502 23.2725C317.727 23.3175 317.899 23.37 318.019 23.43V25.9275H317.817C317.817 25.2075 317.569 24.645 317.074 24.24C316.579 23.82 315.979 23.61 315.274 23.61C314.449 23.61 313.782 23.8725 313.272 24.3975C312.762 24.9075 312.507 25.5075 312.507 26.1975C312.507 26.4825 312.567 26.82 312.687 27.21C312.822 27.585 313.062 27.9375 313.407 28.2675L317.839 32.3625C318.289 32.7825 318.589 33.2325 318.739 33.7125C318.889 34.1925 318.964 34.6575 318.964 35.1075C318.964 36.3525 318.582 37.365 317.817 38.145C317.067 38.925 316.047 39.315 314.757 39.315C314.397 39.315 313.969 39.2775 313.474 39.2025C312.994 39.1275 312.522 39 312.057 38.82C311.607 38.625 311.232 38.3775 310.932 38.0775C310.887 37.8375 310.864 37.5375 310.864 37.1775C310.864 36.8175 310.894 36.4425 310.954 36.0525C311.014 35.6475 311.097 35.28 311.202 34.95H311.404C311.329 35.715 311.427 36.3825 311.697 36.9525C311.967 37.5225 312.357 37.9575 312.867 38.2575C313.392 38.5425 313.984 38.67 314.644 38.64C315.469 38.595 316.174 38.31 316.759 37.785C317.359 37.245 317.659 36.525 317.659 35.625C317.659 35.19 317.584 34.8 317.434 34.455C317.284 34.095 317.067 33.7875 316.782 33.5325L312.462 29.5275C312.012 29.1075 311.697 28.65 311.517 28.155C311.337 27.645 311.247 27.1725 311.247 26.7375C311.247 26.1075 311.397 25.5 311.697 24.915C311.997 24.33 312.439 23.8575 313.024 23.4975C313.624 23.1225 314.352 22.935 315.207 22.935ZM318.019 23.16V23.6325H316.309V23.16H318.019ZM336.213 32.43L335.943 35.9625C335.553 36.6075 335.058 37.185 334.458 37.695C333.873 38.19 333.175 38.5875 332.365 38.8875C331.57 39.1725 330.655 39.315 329.62 39.315C328.06 39.3 326.673 38.955 325.458 38.28C324.243 37.605 323.29 36.66 322.6 35.445C321.925 34.215 321.588 32.7675 321.588 31.1025C321.588 29.4675 321.925 28.0425 322.6 26.8275C323.275 25.5975 324.22 24.645 325.435 23.97C326.665 23.28 328.105 22.935 329.755 22.935C330.865 22.935 331.863 23.085 332.748 23.385C333.648 23.67 334.428 24.03 335.088 24.465L335.538 27.6375H335.335C335.005 26.3175 334.33 25.32 333.31 24.645C332.29 23.955 331.105 23.61 329.755 23.61C328.435 23.61 327.288 23.925 326.313 24.555C325.353 25.17 324.603 26.04 324.063 27.165C323.538 28.275 323.275 29.58 323.275 31.08C323.275 32.58 323.538 33.8925 324.063 35.0175C324.603 36.1425 325.345 37.02 326.29 37.65C327.25 38.28 328.36 38.61 329.62 38.64C330.685 38.64 331.668 38.445 332.568 38.055C333.483 37.65 334.248 36.9975 334.863 36.0975C335.478 35.1825 335.868 33.96 336.033 32.43H336.213ZM341.878 23.25V39H340.415V23.25H341.878ZM340.483 37.3575V39H338.683V38.775C338.683 38.775 338.728 38.775 338.818 38.775C338.923 38.775 338.975 38.775 338.975 38.775C339.365 38.775 339.695 38.64 339.965 38.37C340.25 38.085 340.4 37.7475 340.415 37.3575H340.483ZM340.483 24.8925H340.415C340.4 24.5025 340.25 24.1725 339.965 23.9025C339.695 23.6175 339.365 23.475 338.975 23.475C338.975 23.475 338.923 23.475 338.818 23.475C338.728 23.475 338.683 23.475 338.683 23.475V23.25H340.483V24.8925ZM341.81 37.3575H341.878C341.893 37.7475 342.035 38.085 342.305 38.37C342.59 38.64 342.928 38.775 343.318 38.775C343.318 38.775 343.363 38.775 343.453 38.775C343.543 38.775 343.595 38.775 343.61 38.775V39H341.81V37.3575ZM341.81 24.8925V23.25H343.61V23.475C343.595 23.475 343.543 23.475 343.453 23.475C343.363 23.475 343.318 23.475 343.318 23.475C342.928 23.475 342.59 23.6175 342.305 23.9025C342.035 24.1725 341.893 24.5025 341.878 24.8925H341.81ZM349.48 23.25V39H348.018V23.25H349.48ZM355.555 38.3025V39H349.413V38.3025H355.555ZM354.588 30.9V31.575H349.413V30.9H354.588ZM355.555 23.25V23.9475H349.413V23.25H355.555ZM356.928 35.355L355.623 39H351.888L352.698 38.3025C353.493 38.3025 354.138 38.1825 354.633 37.9425C355.143 37.6875 355.555 37.335 355.87 36.885C356.185 36.435 356.463 35.925 356.703 35.355H356.928ZM354.588 31.53V33.015H354.363V32.6775C354.363 32.3775 354.258 32.1225 354.048 31.9125C353.838 31.6875 353.583 31.575 353.283 31.575V31.53H354.588ZM354.588 29.46V30.945H353.283V30.9C353.583 30.885 353.838 30.7725 354.048 30.5625C354.258 30.3375 354.363 30.075 354.363 29.775V29.46H354.588ZM355.555 23.88V25.68H355.33V25.275C355.33 24.915 355.203 24.6075 354.948 24.3525C354.693 24.0825 354.378 23.94 354.003 23.925V23.88H355.555ZM355.555 22.845V23.4975L352.81 23.25C353.14 23.25 353.485 23.2275 353.845 23.1825C354.22 23.1375 354.565 23.085 354.88 23.025C355.195 22.965 355.42 22.905 355.555 22.845ZM348.085 37.3575V39H346.285V38.775C346.285 38.775 346.33 38.775 346.42 38.775C346.525 38.775 346.578 38.775 346.578 38.775C346.968 38.775 347.298 38.64 347.568 38.37C347.853 38.085 348.003 37.7475 348.018 37.3575H348.085ZM348.085 24.8925H348.018C348.018 24.5025 347.875 24.1725 347.59 23.9025C347.305 23.6175 346.968 23.475 346.578 23.475C346.578 23.475 346.533 23.475 346.443 23.475C346.353 23.475 346.308 23.475 346.308 23.475L346.285 23.25H348.085V24.8925ZM360.536 22.9125L373.609 36.8625L373.811 39.315L360.739 25.3875L360.536 22.9125ZM360.581 37.4025V39H358.714V38.775C358.714 38.775 358.781 38.775 358.916 38.775C359.051 38.775 359.126 38.775 359.141 38.775C359.516 38.775 359.839 38.64 360.109 38.37C360.379 38.1 360.514 37.7775 360.514 37.4025H360.581ZM361.549 37.4025C361.549 37.7775 361.684 38.1 361.954 38.37C362.224 38.64 362.546 38.775 362.921 38.775C362.936 38.775 363.011 38.775 363.146 38.775C363.281 38.775 363.349 38.775 363.349 38.775V39H361.481V37.4025H361.549ZM360.536 22.9125L361.526 24.1725L361.549 39H360.514V25.725C360.514 24.96 360.476 24.3 360.401 23.745C360.341 23.19 360.311 22.9125 360.311 22.9125H360.536ZM373.811 23.25V36.435C373.811 36.915 373.826 37.38 373.856 37.83C373.886 38.265 373.916 38.625 373.946 38.91C373.991 39.18 374.014 39.315 374.014 39.315H373.811L372.799 38.1225V23.25H373.811ZM375.611 23.25V23.475C375.611 23.475 375.544 23.475 375.409 23.475C375.274 23.475 375.206 23.475 375.206 23.475C374.831 23.475 374.509 23.61 374.239 23.88C373.969 24.135 373.826 24.4575 373.811 24.8475H373.744V23.25H375.611ZM370.976 23.25H372.844V24.8475H372.799C372.784 24.4575 372.641 24.135 372.371 23.88C372.116 23.61 371.794 23.475 371.404 23.475C371.404 23.475 371.336 23.475 371.201 23.475C371.066 23.475 370.991 23.475 370.976 23.475V23.25ZM392.155 32.43L391.885 35.9625C391.495 36.6075 391 37.185 390.4 37.695C389.815 38.19 389.118 38.5875 388.308 38.8875C387.513 39.1725 386.598 39.315 385.563 39.315C384.003 39.3 382.615 38.955 381.4 38.28C380.185 37.605 379.233 36.66 378.543 35.445C377.868 34.215 377.53 32.7675 377.53 31.1025C377.53 29.4675 377.868 28.0425 378.543 26.8275C379.218 25.5975 380.163 24.645 381.378 23.97C382.608 23.28 384.048 22.935 385.698 22.935C386.808 22.935 387.805 23.085 388.69 23.385C389.59 23.67 390.37 24.03 391.03 24.465L391.48 27.6375H391.278C390.948 26.3175 390.273 25.32 389.253 24.645C388.233 23.955 387.048 23.61 385.698 23.61C384.378 23.61 383.23 23.925 382.255 24.555C381.295 25.17 380.545 26.04 380.005 27.165C379.48 28.275 379.218 29.58 379.218 31.08C379.218 32.58 379.48 33.8925 380.005 35.0175C380.545 36.1425 381.288 37.02 382.233 37.65C383.193 38.28 384.303 38.61 385.563 38.64C386.628 38.64 387.61 38.445 388.51 38.055C389.425 37.65 390.19 36.9975 390.805 36.0975C391.42 35.1825 391.81 33.96 391.975 32.43H392.155ZM397.82 23.25V39H396.357V23.25H397.82ZM403.895 38.3025V39H397.752V38.3025H403.895ZM402.927 30.9V31.575H397.752V30.9H402.927ZM403.895 23.25V23.9475H397.752V23.25H403.895ZM405.267 35.355L403.962 39H400.227L401.037 38.3025C401.832 38.3025 402.477 38.1825 402.972 37.9425C403.482 37.6875 403.895 37.335 404.21 36.885C404.525 36.435 404.802 35.925 405.042 35.355H405.267ZM402.927 31.53V33.015H402.702V32.6775C402.702 32.3775 402.597 32.1225 402.387 31.9125C402.177 31.6875 401.922 31.575 401.622 31.575V31.53H402.927ZM402.927 29.46V30.945H401.622V30.9C401.922 30.885 402.177 30.7725 402.387 30.5625C402.597 30.3375 402.702 30.075 402.702 29.775V29.46H402.927ZM403.895 23.88V25.68H403.67V25.275C403.67 24.915 403.542 24.6075 403.287 24.3525C403.032 24.0825 402.717 23.94 402.342 23.925V23.88H403.895ZM403.895 22.845V23.4975L401.15 23.25C401.48 23.25 401.825 23.2275 402.185 23.1825C402.56 23.1375 402.905 23.085 403.22 23.025C403.535 22.965 403.76 22.905 403.895 22.845ZM396.425 37.3575V39H394.625V38.775C394.625 38.775 394.67 38.775 394.76 38.775C394.865 38.775 394.917 38.775 394.917 38.775C395.307 38.775 395.637 38.64 395.907 38.37C396.192 38.085 396.342 37.7475 396.357 37.3575H396.425ZM396.425 24.8925H396.357C396.357 24.5025 396.215 24.1725 395.93 23.9025C395.645 23.6175 395.307 23.475 394.917 23.475C394.917 23.475 394.872 23.475 394.782 23.475C394.692 23.475 394.647 23.475 394.647 23.475L394.625 23.25H396.425V24.8925ZM427.096 23.25V39H425.633V23.25H427.096ZM416.431 23.25V39H414.968V23.25H416.431ZM425.836 30.8775V31.5525H416.206V30.8775H425.836ZM415.036 37.3575V39H413.236V38.775C413.236 38.775 413.281 38.775 413.371 38.775C413.476 38.775 413.528 38.775 413.528 38.775C413.918 38.775 414.248 38.64 414.518 38.37C414.803 38.085 414.953 37.7475 414.968 37.3575H415.036ZM415.036 24.8925H414.968C414.953 24.5025 414.803 24.1725 414.518 23.9025C414.248 23.6175 413.918 23.475 413.528 23.475C413.528 23.475 413.476 23.475 413.371 23.475C413.281 23.475 413.236 23.475 413.236 23.475V23.25H415.036V24.8925ZM416.363 37.3575H416.431C416.446 37.7475 416.588 38.085 416.858 38.37C417.143 38.64 417.481 38.775 417.871 38.775C417.871 38.775 417.916 38.775 418.006 38.775C418.096 38.775 418.148 38.775 418.163 38.775V39H416.363V37.3575ZM416.363 24.8925V23.25H418.163V23.475C418.148 23.475 418.096 23.475 418.006 23.475C417.916 23.475 417.871 23.475 417.871 23.475C417.481 23.475 417.143 23.6175 416.858 23.9025C416.588 24.1725 416.446 24.5025 416.431 24.8925H416.363ZM425.701 37.3575V39H423.901V38.775C423.916 38.775 423.968 38.775 424.058 38.775C424.148 38.775 424.193 38.775 424.193 38.775C424.583 38.775 424.921 38.64 425.206 38.37C425.491 38.085 425.633 37.7475 425.633 37.3575H425.701ZM425.701 24.8925H425.633C425.633 24.5025 425.491 24.1725 425.206 23.9025C424.921 23.6175 424.583 23.475 424.193 23.475C424.193 23.475 424.148 23.475 424.058 23.475C423.968 23.475 423.916 23.475 423.901 23.475V23.25H425.701V24.8925ZM427.028 37.3575H427.096C427.111 37.7475 427.253 38.085 427.523 38.37C427.808 38.64 428.146 38.775 428.536 38.775C428.536 38.775 428.581 38.775 428.671 38.775C428.776 38.775 428.828 38.775 428.828 38.775V39H427.028V37.3575ZM427.028 24.8925V23.25H428.828V23.475C428.828 23.475 428.776 23.475 428.671 23.475C428.581 23.475 428.536 23.475 428.536 23.475C428.146 23.475 427.808 23.6175 427.523 23.9025C427.253 24.1725 427.111 24.5025 427.096 24.8925H427.028ZM438.266 22.935L444.926 38.865H443.014L437.816 25.0725L438.266 22.935ZM433.429 37.3575C433.324 37.6575 433.309 37.9125 433.384 38.1225C433.459 38.3325 433.579 38.4975 433.744 38.6175C433.924 38.7225 434.104 38.775 434.284 38.775H434.486V39H429.964V38.775C429.964 38.775 430.001 38.775 430.076 38.775C430.136 38.775 430.166 38.775 430.166 38.775C430.511 38.775 430.864 38.67 431.224 38.46C431.599 38.235 431.906 37.8675 432.146 37.3575H433.429ZM438.266 22.935L438.469 24.51L432.821 38.9325H431.471L437.231 25.2525C437.231 25.2525 437.269 25.1625 437.344 24.9825C437.434 24.7875 437.531 24.555 437.636 24.285C437.756 24.015 437.854 23.7525 437.929 23.4975C438.019 23.2425 438.064 23.055 438.064 22.935H438.266ZM441.439 32.8575V33.5325H434.396V32.8575H441.439ZM442.451 37.3575H444.296C444.521 37.8675 444.821 38.235 445.196 38.46C445.571 38.67 445.931 38.775 446.276 38.775C446.276 38.775 446.306 38.775 446.366 38.775C446.426 38.775 446.456 38.775 446.456 38.775V39H441.394V38.775H441.596C441.881 38.775 442.136 38.655 442.361 38.415C442.586 38.16 442.616 37.8075 442.451 37.3575ZM450.752 23.25V39H449.29V23.25H450.752ZM456.827 38.3025V39H450.685V38.3025H456.827ZM458.2 35.355L456.895 39H453.16L453.97 38.3025C454.765 38.3025 455.41 38.1825 455.905 37.9425C456.415 37.6875 456.827 37.335 457.142 36.885C457.457 36.435 457.735 35.925 457.975 35.355H458.2ZM449.357 37.3575V39H447.557V38.775C447.557 38.775 447.602 38.775 447.692 38.775C447.797 38.775 447.85 38.775 447.85 38.775C448.24 38.775 448.57 38.64 448.84 38.37C449.125 38.085 449.275 37.7475 449.29 37.3575H449.357ZM449.357 24.8925H449.29C449.275 24.5025 449.125 24.1725 448.84 23.9025C448.57 23.6175 448.24 23.475 447.85 23.475C447.85 23.475 447.797 23.475 447.692 23.475C447.602 23.475 447.557 23.475 447.557 23.475V23.25H449.357V24.8925ZM450.685 24.8925V23.25H452.485V23.475C452.47 23.475 452.417 23.475 452.327 23.475C452.237 23.475 452.192 23.475 452.192 23.475C451.802 23.475 451.465 23.6175 451.18 23.9025C450.91 24.1725 450.767 24.5025 450.752 24.8925H450.685ZM463.057 23.25V39H461.594V23.25H463.057ZM469.132 38.3025V39H462.989V38.3025H469.132ZM470.504 35.355L469.199 39H465.464L466.274 38.3025C467.069 38.3025 467.714 38.1825 468.209 37.9425C468.719 37.6875 469.132 37.335 469.447 36.885C469.762 36.435 470.039 35.925 470.279 35.355H470.504ZM461.662 37.3575V39H459.862V38.775C459.862 38.775 459.907 38.775 459.997 38.775C460.102 38.775 460.154 38.775 460.154 38.775C460.544 38.775 460.874 38.64 461.144 38.37C461.429 38.085 461.579 37.7475 461.594 37.3575H461.662ZM461.662 24.8925H461.594C461.579 24.5025 461.429 24.1725 461.144 23.9025C460.874 23.6175 460.544 23.475 460.154 23.475C460.154 23.475 460.102 23.475 459.997 23.475C459.907 23.475 459.862 23.475 459.862 23.475V23.25H461.662V24.8925ZM462.989 24.8925V23.25H464.789V23.475C464.774 23.475 464.722 23.475 464.632 23.475C464.542 23.475 464.497 23.475 464.497 23.475C464.107 23.475 463.769 23.6175 463.484 23.9025C463.214 24.1725 463.072 24.5025 463.057 24.8925H462.989Z" fill="white"/>
</svg>
